<svg viewBox="0 0 1440 320" xmlns="http://www.w3.org/2000/svg">
  <!-- Thick Light Blue Outline at the Top -->
  <path fill="none" stroke="#42a5f5" stroke-width="80" stroke-linecap="round"
    d="M0,64L48,80C96,96,192,128,288,128C384,128,480,96,576,74.7C672,53,768,43,864,69.3C960,96,1056,160,1152,181.3C1248,203,1344,181,1392,170.7L1440,160">
  </path>

  <!-- Full White Background -->
  <path fill="#ffffff" d="M0,64L48,80C96,96,192,128,288,128C384,128,480,96,576,74.7C672,53,768,43,864,69.3C960,96,1056,160,1152,181.3C1248,203,1344,181,1392,170.7L1440,160V0H1392C1344,0,1248,0,1152,0C1056,0,960,0,864,0C768,0,672,0,576,0C480,0,384,0,288,0C192,0,96,0,48,0H0Z">
  </path>
</svg>
