<svg viewBox="0 0 1440 320" xmlns="http://www.w3.org/2000/svg">
  <!-- Thick Light Blue Outline -->
  <path fill="none" stroke="#42a5f5" stroke-width="80" stroke-linecap="round"
    d="M0,160L48,149.3C96,139,192,117,288,106.7C384,96,480,96,576,122.7C672,149,768,203,864,213.3C960,224,1056,192,1152,154.7C1248,117,1344,75,1392,53.3L1440,32">
  </path>

  <!-- Full White Wave -->
  <path fill="#ffffff" d="M0,160L48,149.3C96,139,192,117,288,106.7C384,96,480,96,576,122.7C672,149,768,203,864,213.3C960,224,1056,192,1152,154.7C1248,117,1344,75,1392,53.3L1440,32L1440,320L1392,320C1344,320,1248,320,1152,320C1056,320,960,320,864,320C768,320,672,320,576,320C480,320,384,320,288,320C192,320,96,320,48,320L0,320Z">
  </path>
</svg>

